<svg width="37" height="38" viewBox="0 0 37 38" fill="none" xmlns="http://www.w3.org/2000/svg">
<path d="M18.5 18.9999C21.2959 18.9999 23.5625 16.7333 23.5625 13.9374C23.5625 11.1414 21.2959 8.87488 18.5 8.87488C15.7041 8.87488 13.4375 11.1414 13.4375 13.9374C13.4375 16.7333 15.7041 18.9999 18.5 18.9999Z" stroke="#333333" stroke-width="2.75"/>
<path d="M18.5 35.875C27.8198 35.875 35.375 28.3198 35.375 19C35.375 9.68019 27.8198 2.125 18.5 2.125C9.18019 2.125 1.625 9.68019 1.625 19C1.625 28.3198 9.18019 35.875 18.5 35.875Z" stroke="#333333" stroke-width="2.75"/>
<path d="M28.5722 32.5001C28.3037 27.6207 26.8098 24.0626 18.4992 24.0626C10.1888 24.0626 8.69484 27.6207 8.42627 32.5001" stroke="#333333" stroke-width="2.75" stroke-linecap="round"/>
</svg>
