<svg width="25" height="39" viewBox="0 0 25 39" fill="none" xmlns="http://www.w3.org/2000/svg">
<path d="M23.4594 17.8491L5.91389 0.618571C5.50808 0.219726 4.96636 0 4.38875 0C3.81113 0 3.26942 0.219726 2.86361 0.618571L1.57151 1.88719C0.730724 2.71384 0.730724 4.05738 1.57151 4.88277L16.3049 19.352L1.55516 33.8372C1.14935 34.2361 0.925293 34.7678 0.925293 35.3347C0.925293 35.9023 1.14935 36.434 1.55516 36.8331L2.84726 38.1014C3.25339 38.5003 3.79478 38.72 4.3724 38.72C4.95002 38.72 5.49173 38.5003 5.89754 38.1014L23.4594 20.8551C23.8662 20.455 24.0896 19.9208 24.0883 19.3529C24.0896 18.7828 23.8662 18.2489 23.4594 17.8491Z" fill="white"/>
</svg>
