<svg width="25" height="39" viewBox="0 0 25 39" fill="none" xmlns="http://www.w3.org/2000/svg">
<path d="M1.55428 20.8709L19.0998 38.1014C19.5056 38.5003 20.0473 38.72 20.6249 38.72C21.2025 38.72 21.7443 38.5003 22.1501 38.1014L23.4422 36.8328C24.2829 36.0062 24.2829 34.6626 23.4422 33.8372L8.70878 19.368L23.4585 4.88277C23.8643 4.48392 24.0884 3.95224 24.0884 3.3853C24.0884 2.81772 23.8643 2.28603 23.4585 1.88688L22.1664 0.618568C21.7603 0.219723 21.2189 0 20.6413 0C20.0637 0 19.5219 0.219723 19.1161 0.618568L1.55428 17.8649C1.14752 18.265 0.924099 18.7992 0.925381 19.3671C0.924099 19.9372 1.14752 20.4711 1.55428 20.8709Z" fill="white"/>
</svg>
