<svg width="50" height="41" viewBox="0 0 50 41" fill="none" xmlns="http://www.w3.org/2000/svg">
<path d="M47.3774 0.557009H34.8649C32.1798 0.557009 29.5548 1.35974 27.2962 2.87412L24.6274 4.65607L21.9587 2.87412C19.7023 1.36003 17.0744 0.555515 14.3899 0.557009H1.87744C0.909473 0.557009 0.127441 1.37113 0.127441 2.37881V34.7158C0.127441 35.7235 0.909473 36.5377 1.87744 36.5377H14.3899C17.0751 36.5377 19.7001 37.3404 21.9587 38.8548L24.3868 40.483C24.4579 40.5285 24.5399 40.557 24.622 40.557C24.704 40.557 24.786 40.5342 24.8571 40.483L27.2853 38.8548C29.5493 37.3404 32.1798 36.5377 34.8649 36.5377H47.3774C48.3454 36.5377 49.1274 35.7235 49.1274 34.7158V2.37881C49.1274 1.37113 48.3454 0.557009 47.3774 0.557009ZM18.7212 22.9026C18.7212 23.136 18.5462 23.3296 18.3329 23.3296H8.17197C7.95869 23.3296 7.78369 23.136 7.78369 22.9026V20.3407C7.78369 20.1072 7.95869 19.9137 8.17197 19.9137H18.3274C18.5407 19.9137 18.7157 20.1072 18.7157 20.3407V22.9026H18.7212ZM18.7212 14.9322C18.7212 15.1656 18.5462 15.3592 18.3329 15.3592H8.17197C7.95869 15.3592 7.78369 15.1656 7.78369 14.9322V12.3703C7.78369 12.1369 7.95869 11.9433 8.17197 11.9433H18.3274C18.5407 11.9433 18.7157 12.1369 18.7157 12.3703V14.9322H18.7212ZM41.4712 22.9026C41.4712 23.136 41.2962 23.3296 41.0829 23.3296H30.922C30.7087 23.3296 30.5337 23.136 30.5337 22.9026V20.3407C30.5337 20.1072 30.7087 19.9137 30.922 19.9137H41.0774C41.2907 19.9137 41.4657 20.1072 41.4657 20.3407V22.9026H41.4712ZM41.4712 14.9322C41.4712 15.1656 41.2962 15.3592 41.0829 15.3592H30.922C30.7087 15.3592 30.5337 15.1656 30.5337 14.9322V12.3703C30.5337 12.1369 30.7087 11.9433 30.922 11.9433H41.0774C41.2907 11.9433 41.4657 12.1369 41.4657 12.3703V14.9322H41.4712Z" fill="#333333"/>
</svg>
