<svg width="12" height="22" viewBox="0 0 12 22" fill="none" xmlns="http://www.w3.org/2000/svg">
<path opacity="0.9" d="M11.6742 10.1806L2.58443 0.835485C2.37419 0.61917 2.09355 0.5 1.7943 0.5C1.49506 0.5 1.21441 0.61917 1.00418 0.835485L0.334782 1.52353C-0.1008 1.97187 -0.1008 2.70054 0.334782 3.1482L7.96767 10.9956L0.326313 18.8518C0.116078 19.0681 0 19.3565 0 19.664C0 19.9718 0.116078 20.2602 0.326313 20.4766L0.99571 21.1645C1.20611 21.3808 1.48659 21.5 1.78583 21.5C2.08508 21.5 2.36572 21.3808 2.57596 21.1645L11.6742 11.8109C11.8849 11.5939 12.0007 11.3042 12 10.9962C12.0007 10.687 11.8849 10.3974 11.6742 10.1806Z" fill="black"/>
</svg>
