<svg width="36" height="36" viewBox="0 0 36 36" fill="none" xmlns="http://www.w3.org/2000/svg">
<path d="M3.37074 26.3801C1.82808 20.1938 1.05676 17.1006 2.67652 15.0209C4.29628 12.941 7.47656 12.941 13.8371 12.941H22.1634C28.5239 12.941 31.7042 12.941 33.3239 15.0209C34.9438 17.1006 34.1724 20.1938 32.6298 26.3801C31.6486 30.3148 31.1579 32.282 29.6948 33.4274C28.2316 34.5728 26.2089 34.5728 22.1634 34.5728H13.8371C9.79167 34.5728 7.76896 34.5728 6.30572 33.4274C4.84248 32.282 4.3519 30.3148 3.37074 26.3801Z" stroke="#333333" stroke-width="2.75"/>
<path d="M31.4858 13.8421L30.2085 9.14554C29.716 7.3346 29.4696 6.42912 28.9645 5.7472C28.4614 5.06808 27.7778 4.54461 26.9921 4.23668C26.2029 3.92749 25.2668 3.92749 23.3945 3.92749M4.51465 13.8421L5.792 9.14554C6.28453 7.3346 6.5308 6.42912 7.03593 5.7472C7.539 5.06808 8.22257 4.54461 9.00844 4.23668C9.79754 3.92749 10.7337 3.92749 12.606 3.92749" stroke="#333333" stroke-width="2.75"/>
<path d="M12.606 3.92765C12.606 2.93208 13.411 2.125 14.404 2.125H21.5963C22.5894 2.125 23.3944 2.93208 23.3944 3.92765C23.3944 4.92322 22.5894 5.73031 21.5963 5.73031H14.404C13.411 5.73031 12.606 4.92322 12.606 3.92765Z" stroke="#333333" stroke-width="2.75"/>
<path d="M10.8086 20.1513V27.3619" stroke="#333333" stroke-width="2.75" stroke-linecap="round" stroke-linejoin="round"/>
<path d="M25.1934 20.1513V27.3619" stroke="#333333" stroke-width="2.75" stroke-linecap="round" stroke-linejoin="round"/>
<path d="M18 20.1513V27.3619" stroke="#333333" stroke-width="2.75" stroke-linecap="round" stroke-linejoin="round"/>
</svg>
