<svg width="28" height="28" viewBox="0 0 28 28" fill="none" xmlns="http://www.w3.org/2000/svg">
<path fill-rule="evenodd" clip-rule="evenodd" d="M15.6875 3.875C15.6875 2.01104 17.1985 0.5 19.0625 0.5H24.125C25.989 0.5 27.5 2.01104 27.5 3.875V8.9375C27.5 10.8015 25.989 12.3125 24.125 12.3125H19.0625C17.1985 12.3125 15.6875 10.8015 15.6875 8.9375V3.875ZM24.125 3.875H19.0625V8.9375H24.125V3.875ZM3.875 15.6875C2.01104 15.6875 0.5 17.1985 0.5 19.0625V24.125C0.5 25.989 2.01104 27.5 3.875 27.5H8.9375C10.8015 27.5 12.3125 25.989 12.3125 24.125V19.0625C12.3125 17.1985 10.8015 15.6875 8.9375 15.6875H3.875ZM3.875 19.0625H8.9375V24.125H3.875V19.0625ZM19.0625 15.6875C17.1985 15.6875 15.6875 17.1985 15.6875 19.0625V24.125C15.6875 25.989 17.1985 27.5 19.0625 27.5H24.125C25.989 27.5 27.5 25.989 27.5 24.125V19.0625C27.5 17.1985 25.989 15.6875 24.125 15.6875H19.0625ZM19.0625 19.0625H24.125V24.125H19.0625V19.0625ZM3.875 0.5C2.01104 0.5 0.5 2.01104 0.5 3.875V8.9375C0.5 10.8015 2.01104 12.3125 3.875 12.3125H8.9375C10.8015 12.3125 12.3125 10.8015 12.3125 8.9375V3.875C12.3125 2.01104 10.8015 0.5 8.9375 0.5H3.875ZM3.875 3.875H8.9375V8.9375H3.875V3.875Z" fill="white"/>
</svg>
