<svg width="13" height="22" viewBox="0 0 13 22" fill="none" xmlns="http://www.w3.org/2000/svg">
<path d="M0.352968 11.8584L10.2002 21.6485C10.428 21.8752 10.732 22 11.0562 22C11.3804 22 11.6844 21.8752 11.9121 21.6485L12.6373 20.9277C13.1092 20.458 13.1092 19.6947 12.6373 19.2257L4.36836 11.0046L12.6465 2.7743C12.8742 2.54769 13 2.24559 13 1.92346C13 1.60098 12.8742 1.29888 12.6465 1.07209L11.9213 0.35146C11.6934 0.124844 11.3895 0 11.0653 0C10.7412 0 10.4371 0.124844 10.2094 0.35146L0.352968 10.1505C0.124674 10.3778 -0.000716209 10.6814 2.86102e-06 11.004C-0.000716209 11.3279 0.124674 11.6313 0.352968 11.8584Z" fill="#333333"/>
</svg>
