<svg width="22" height="26" viewBox="0 0 22 26" fill="none" xmlns="http://www.w3.org/2000/svg">
<path d="M18.5 5L17.4989 21.0172C17.4113 22.42 17.3674 23.1215 17.0834 23.6533C16.8332 24.1216 16.456 24.498 16.0014 24.7331C15.485 25 14.8259 25 13.5077 25H8.49221C7.17409 25 6.51502 25 5.99861 24.7331C5.54396 24.498 5.16674 24.1216 4.91665 23.6533C4.63259 23.1215 4.58875 22.42 4.50107 21.0172L3.5 5M1 5H21M16 5L15.6617 3.91743C15.3339 2.86833 15.1699 2.34379 14.8659 1.95597C14.5974 1.61351 14.2526 1.34843 13.8631 1.18504C13.422 1 12.9037 1 11.867 1H10.133C9.09625 1 8.578 1 8.13689 1.18504C7.7474 1.34843 7.4026 1.61351 7.13411 1.95597C6.83006 2.34379 6.66615 2.86833 6.3383 3.91743L6 5M13.5 10.3333V19.6667M8.5 10.3333V19.6667" stroke="#333333" stroke-width="2" stroke-linecap="round" stroke-linejoin="round"/>
</svg>
