<svg width="13" height="8" viewBox="0 0 13 8" fill="none" xmlns="http://www.w3.org/2000/svg">
<path d="M7.05125 7.00135L12.3913 1.69899C12.5149 1.57635 12.583 1.41264 12.583 1.23808C12.583 1.06352 12.5149 0.899814 12.3913 0.777177L11.9981 0.386696C11.7419 0.132606 11.3256 0.132606 11.0698 0.386696L6.5855 4.83921L2.09626 0.381755C1.97266 0.259118 1.80788 0.191406 1.63217 0.191406C1.45627 0.191406 1.29149 0.259118 1.16778 0.381755L0.774713 0.772237C0.651105 0.894971 0.583008 1.05858 0.583008 1.23314C0.583008 1.4077 0.651105 1.57141 0.774713 1.69405L6.11965 7.00135C6.24364 7.12427 6.4092 7.19179 6.5852 7.1914C6.76188 7.19179 6.92735 7.12427 7.05125 7.00135Z" fill="#333333"/>
</svg>
