<svg width="20" height="17" viewBox="0 0 20 17" fill="none" xmlns="http://www.w3.org/2000/svg">
<path d="M18.455 1.7H8.9075C8.69831 1.20666 8.32841 0.780877 7.84569 0.477782C7.36296 0.174686 6.78965 0.00824135 6.2 0C5.61525 0.00496618 5.04637 0.170751 4.57052 0.474865C4.09467 0.778978 3.7349 1.2067 3.54 1.7H1.545C1.41397 1.69428 1.28297 1.71175 1.1595 1.7514C1.03602 1.79104 0.922501 1.85209 0.825433 1.93104C0.728365 2.01 0.649656 2.10531 0.593814 2.21152C0.537971 2.31773 0.506091 2.43275 0.5 2.55C0.506091 2.66725 0.537971 2.78227 0.593814 2.88848C0.649656 2.99469 0.728365 3.09 0.825433 3.16896C0.922501 3.24791 1.03602 3.30896 1.1595 3.34861C1.28297 3.38825 1.41397 3.40572 1.545 3.4H3.54C3.7349 3.8933 4.09467 4.32102 4.57052 4.62514C5.04637 4.92925 5.61525 5.09503 6.2 5.1C6.78965 5.09176 7.36296 4.92531 7.84569 4.62222C8.32841 4.31912 8.69831 3.89334 8.9075 3.4H18.455C18.586 3.40572 18.717 3.38825 18.8405 3.34861C18.964 3.30896 19.0775 3.24791 19.1746 3.16896C19.2716 3.09 19.3503 2.99469 19.4062 2.88848C19.462 2.78227 19.4939 2.66725 19.5 2.55C19.4939 2.43275 19.462 2.31773 19.4062 2.21152C19.3503 2.10531 19.2716 2.01 19.1746 1.93104C19.0775 1.85209 18.964 1.79104 18.8405 1.7514C18.717 1.71175 18.586 1.69428 18.455 1.7ZM6.2 3.4C6.01211 3.4 5.82844 3.35015 5.67221 3.25675C5.51598 3.16335 5.39422 3.0306 5.32231 2.87528C5.25041 2.71996 5.2316 2.54906 5.26825 2.38417C5.30491 2.21929 5.39539 2.06783 5.52825 1.94896C5.66111 1.83008 5.83038 1.74913 6.01466 1.71633C6.19895 1.68354 6.38996 1.70037 6.56355 1.7647C6.73714 1.82904 6.88551 1.93798 6.9899 2.07777C7.09428 2.21755 7.15 2.38189 7.15 2.55C7.15 2.77543 7.04991 2.99163 6.87175 3.15104C6.69359 3.31045 6.45196 3.4 6.2 3.4Z" fill="black"/>
<path d="M18.4547 7.6502H16.5072C16.298 7.15686 15.9281 6.73107 15.4454 6.42798C14.9627 6.12488 14.3894 5.95844 13.7997 5.9502C13.215 5.95516 12.6461 6.12095 12.1702 6.42506C11.6944 6.72917 11.3346 7.15689 11.1397 7.6502H1.54473C1.29277 7.6502 1.05113 7.73975 0.872975 7.89915C0.694816 8.05856 0.594727 8.27476 0.594727 8.5002C0.594727 8.72563 0.694816 8.94183 0.872975 9.10124C1.05113 9.26064 1.29277 9.3502 1.54473 9.3502H11.1397C11.3346 9.8435 11.6944 10.2712 12.1702 10.5753C12.6461 10.8794 13.215 11.0452 13.7997 11.0502C14.3894 11.042 14.9627 10.8755 15.4454 10.5724C15.9281 10.2693 16.298 9.84353 16.5072 9.3502H18.4547C18.7067 9.3502 18.9483 9.26064 19.1265 9.10124C19.3046 8.94183 19.4047 8.72563 19.4047 8.5002C19.4047 8.27476 19.3046 8.05856 19.1265 7.89915C18.9483 7.73975 18.7067 7.6502 18.4547 7.6502ZM13.7997 9.3502C13.6118 9.3502 13.4282 9.30034 13.2719 9.20694C13.1157 9.11355 12.9939 8.98079 12.922 8.82548C12.8501 8.67016 12.8313 8.49925 12.868 8.33437C12.9046 8.16948 12.9951 8.01803 13.128 7.89915C13.2608 7.78028 13.4301 7.69933 13.6144 7.66653C13.7987 7.63373 13.9897 7.65056 14.1633 7.7149C14.3369 7.77923 14.4852 7.88818 14.5896 8.02796C14.694 8.16774 14.7497 8.33208 14.7497 8.5002C14.7497 8.72563 14.6496 8.94183 14.4715 9.10124C14.2933 9.26064 14.0517 9.3502 13.7997 9.3502Z" fill="black"/>
<path d="M18.4547 13.6004H10.3322C10.123 13.1071 9.75314 12.6813 9.27041 12.3782C8.78769 12.0751 8.21438 11.9086 7.62473 11.9004C7.03998 11.9054 6.4711 12.0711 5.99525 12.3753C5.5194 12.6794 5.15962 13.1071 4.96473 13.6004H1.54473C1.29277 13.6004 1.05113 13.6899 0.872975 13.8493C0.694816 14.0088 0.594727 14.225 0.594727 14.4504C0.594727 14.6758 0.694816 14.892 0.872975 15.0514C1.05113 15.2108 1.29277 15.3004 1.54473 15.3004H4.96473C5.15962 15.7937 5.5194 16.2214 5.99525 16.5255C6.4711 16.8296 7.03998 16.9954 7.62473 17.0004C8.21438 16.9921 8.78769 16.8257 9.27041 16.5226C9.75314 16.2195 10.123 15.7937 10.3322 15.3004H18.4547C18.7067 15.3004 18.9483 15.2108 19.1265 15.0514C19.3046 14.892 19.4047 14.6758 19.4047 14.4504C19.4047 14.225 19.3046 14.0088 19.1265 13.8493C18.9483 13.6899 18.7067 13.6004 18.4547 13.6004ZM7.62473 15.3004C7.43683 15.3004 7.25316 15.2505 7.09693 15.1571C6.94071 15.0637 6.81894 14.931 6.74704 14.7757C6.67514 14.6204 6.65632 14.4494 6.69298 14.2846C6.72964 14.1197 6.82012 13.9682 6.95298 13.8493C7.08584 13.7305 7.25511 13.6495 7.43939 13.6167C7.62367 13.5839 7.81469 13.6008 7.98828 13.6651C8.16187 13.7294 8.31024 13.8384 8.41462 13.9782C8.51901 14.1179 8.57473 14.2823 8.57473 14.4504C8.57473 14.6758 8.47464 14.892 8.29648 15.0514C8.11832 15.2108 7.87668 15.3004 7.62473 15.3004Z" fill="black"/>
</svg>
