<svg width="317" height="33" viewBox="0 0 317 33" fill="none" xmlns="http://www.w3.org/2000/svg">
<path d="M13.702 7.716C14.6993 8.192 15.436 8.84933 15.912 9.688C16.4107 10.504 16.6827 11.354 16.728 12.238C16.7733 13.122 16.6147 13.972 16.252 14.788C15.912 15.5813 15.402 16.1933 14.722 16.624C14.586 16.7147 14.484 16.794 14.416 16.862C14.3253 16.9527 14.28 17.032 14.28 17.1C14.28 17.1453 14.348 17.2133 14.484 17.304C14.7333 17.4627 14.9713 17.6327 15.198 17.814C15.4247 17.9953 15.6513 18.1767 15.878 18.358C16.286 18.7207 16.6033 19.1967 16.83 19.786C17.0567 20.3527 17.1927 20.9533 17.238 21.588C17.2833 22.2227 17.238 22.846 17.102 23.458C16.966 24.0473 16.7507 24.546 16.456 24.954C15.572 26.178 14.552 27.13 13.396 27.81C12.24 28.4673 10.9367 28.898 9.486 29.102C9.12333 29.1473 8.76067 29.1813 8.398 29.204C8.058 29.2267 7.718 29.238 7.378 29.238C6.72067 29.2833 6.09733 29.238 5.508 29.102C4.94133 28.966 4.386 28.7847 3.842 28.558C3.298 28.3087 2.754 28.0367 2.21 27.742C1.68867 27.4473 1.16733 27.1413 0.646 26.824C0.464667 26.7107 0.328667 26.5633 0.238 26.382C0.17 26.178 0.181333 25.9627 0.272 25.736C0.521333 25.1467 0.770667 24.5573 1.02 23.968C1.292 23.3787 1.55267 22.7893 1.802 22.2C1.84733 22.1093 1.938 22.0413 2.074 21.996C2.21 21.9507 2.33467 21.9393 2.448 21.962C2.56133 21.9847 2.66333 22.0413 2.754 22.132C2.86733 22.2 2.98067 22.2567 3.094 22.302C3.88733 22.7553 4.70333 23.1407 5.542 23.458C6.40333 23.7753 7.31 23.968 8.262 24.036C8.738 24.0813 9.16867 24.0133 9.554 23.832C9.93933 23.6507 10.3247 23.4693 10.71 23.288C10.8233 23.22 10.914 23.1067 10.982 22.948C11.0727 22.7893 11.1293 22.6193 11.152 22.438C11.1973 22.234 11.22 22.03 11.22 21.826C11.22 21.622 11.186 21.452 11.118 21.316C10.7327 20.364 10.0527 19.82 9.078 19.684C8.76067 19.6387 8.44333 19.616 8.126 19.616C7.83133 19.616 7.52533 19.6047 7.208 19.582C6.84533 19.582 6.664 19.412 6.664 19.072C6.61867 18.664 6.57333 18.256 6.528 17.848C6.50533 17.4173 6.47133 16.998 6.426 16.59C6.834 16.4767 7.23067 16.386 7.616 16.318C8.024 16.2273 8.432 16.1253 8.84 16.012C9.112 15.9213 9.384 15.8307 9.656 15.74C9.928 15.6493 10.1887 15.5133 10.438 15.332C10.7553 15.1053 10.982 14.8447 11.118 14.55C11.2767 14.2553 11.3333 13.9607 11.288 13.666C11.2653 13.3713 11.152 13.0993 10.948 12.85C10.7667 12.578 10.4947 12.3513 10.132 12.17C9.67867 11.9207 9.214 11.7733 8.738 11.728C8.262 11.6827 7.76333 11.7507 7.242 11.932C6.72067 12.1133 6.21067 12.306 5.712 12.51C5.21333 12.6913 4.726 12.918 4.25 13.19C3.81933 13.4393 3.51333 13.5527 3.332 13.53C3.15067 13.4847 2.924 13.2353 2.652 12.782C2.35733 12.3287 2.074 11.8753 1.802 11.422C1.53 10.946 1.26933 10.47 1.02 9.994C0.974667 9.90333 0.963333 9.79 0.986 9.654C1.00867 9.518 1.054 9.40466 1.122 9.314C1.23533 9.20066 1.36 9.09867 1.496 9.008C1.632 8.91733 1.77933 8.838 1.938 8.77C2.93533 8.226 3.92133 7.86333 4.896 7.682C5.87067 7.50067 6.902 7.274 7.99 7.002C8.126 6.95667 8.398 6.92267 8.806 6.9C9.23667 6.87733 9.724 6.88867 10.268 6.934C10.8347 6.95667 11.4127 7.02467 12.002 7.138C12.614 7.25133 13.1807 7.444 13.702 7.716ZM39.5343 22.914C39.557 23.3673 39.6023 23.6507 39.6703 23.764C39.761 23.8547 40.033 23.9113 40.4863 23.934C40.781 23.9567 41.0643 23.968 41.3363 23.968C41.631 23.968 41.9143 23.9793 42.1863 24.002C42.5263 24.002 42.7643 24.0473 42.9003 24.138C43.0363 24.2287 43.1383 24.4327 43.2063 24.75C43.229 24.886 43.2403 25.022 43.2403 25.158C43.2403 25.294 43.2403 25.4187 43.2403 25.532C43.2403 26.28 43.2403 27.028 43.2403 27.776C43.263 28.524 43.2743 29.272 43.2743 30.02C43.2743 30.156 43.2743 30.2807 43.2743 30.394C43.2743 30.53 43.263 30.666 43.2403 30.802C43.1723 31.1873 42.923 31.38 42.4923 31.38C42.0163 31.38 41.529 31.38 41.0303 31.38C40.5543 31.4027 40.0783 31.414 39.6023 31.414C39.149 31.414 38.9563 31.1873 39.0243 30.734V30.632C39.0243 30.2467 39.013 29.952 38.9903 29.748C38.9676 29.544 38.911 29.3853 38.8203 29.272C38.7296 29.1813 38.5823 29.1247 38.3783 29.102C38.1743 29.0793 37.891 29.068 37.5283 29.068C37.2563 29.068 36.7803 29.0567 36.1003 29.034C35.4203 29.034 34.6383 29.0227 33.7543 29C32.8703 29 31.9296 29 30.9323 29C29.9576 28.9773 29.0283 28.966 28.1443 28.966C27.283 28.966 26.5236 28.966 25.8663 28.966C25.209 28.966 24.767 28.9773 24.5403 29C24.4496 29.0227 24.359 29.0907 24.2683 29.204C24.1776 29.3173 24.121 29.4307 24.0983 29.544C24.053 29.7933 24.0303 30.0993 24.0303 30.462C24.053 30.8247 24.0643 31.1307 24.0643 31.38C24.0643 31.516 24.0303 31.6407 23.9623 31.754C23.917 31.8673 23.8036 31.924 23.6223 31.924C23.033 31.9467 22.4096 31.9693 21.7523 31.992C21.095 32.0147 20.4716 32.0147 19.8823 31.992C19.565 31.992 19.361 31.9353 19.2703 31.822C19.1796 31.7087 19.123 31.4933 19.1003 31.176C19.055 30.1787 19.0436 29.1927 19.0663 28.218C19.089 27.2433 19.0776 26.2573 19.0323 25.26C19.0096 24.9427 19.0436 24.75 19.1343 24.682C19.2023 24.5913 19.395 24.5687 19.7123 24.614C20.211 24.682 20.619 24.5007 20.9363 24.07C21.2536 23.662 21.5596 23.2653 21.8543 22.88C22.1716 22.4947 22.455 22.0753 22.7043 21.622C23.203 20.738 23.645 19.8427 24.0303 18.936C24.4383 18.0067 24.7556 17.0433 24.9823 16.046C25.0276 15.842 25.1183 15.4907 25.2543 14.992C25.3903 14.4707 25.5263 13.9153 25.6623 13.326C25.7983 12.714 25.9116 12.1247 26.0023 11.558C26.093 10.9913 26.1383 10.538 26.1383 10.198C26.1156 9.74467 26.127 9.33667 26.1723 8.974C26.2403 8.58867 26.2856 8.16933 26.3083 7.716C26.331 7.28533 26.5576 7.08133 26.9883 7.104C28.099 7.104 29.1983 7.104 30.2863 7.104C31.3743 7.08133 32.4623 7.08133 33.5503 7.104C35.1823 7.104 36.803 7.138 38.4123 7.206C38.7976 7.22867 39.0243 7.28533 39.0923 7.376C39.183 7.46667 39.2283 7.70467 39.2283 8.09C39.2283 8.52067 39.2283 9.13267 39.2283 9.926C39.251 10.6967 39.2736 11.5693 39.2963 12.544C39.319 13.496 39.3416 14.4933 39.3643 15.536C39.387 16.5787 39.3983 17.576 39.3983 18.528C39.421 19.48 39.4436 20.3527 39.4663 21.146C39.489 21.9167 39.5116 22.506 39.5343 22.914ZM33.7543 18.324C33.7543 18.324 33.7543 18.12 33.7543 17.712C33.7543 17.304 33.743 16.8053 33.7203 16.216C33.6976 15.6267 33.675 15.0033 33.6523 14.346C33.6523 13.6887 33.641 13.1107 33.6183 12.612C33.6183 12.4987 33.5956 12.374 33.5503 12.238C33.505 12.102 33.4596 12.034 33.4143 12.034C33.165 12.0113 32.9043 12 32.6323 12C32.383 12 32.1336 12.0227 31.8843 12.068C31.6803 12.1133 31.5783 12.2153 31.5783 12.374C31.601 12.5327 31.601 12.6913 31.5783 12.85C31.533 13.2127 31.499 13.5413 31.4763 13.836C31.4536 14.1307 31.4196 14.4707 31.3743 14.856C31.193 16.3293 30.8756 17.78 30.4223 19.208C29.9916 20.636 29.4136 22.0073 28.6883 23.322C28.6656 23.39 28.643 23.458 28.6203 23.526C28.5976 23.5713 28.575 23.628 28.5523 23.696C28.4843 23.832 28.473 23.9453 28.5183 24.036C28.5863 24.104 28.6883 24.138 28.8243 24.138C29.527 24.138 30.2863 24.1267 31.1023 24.104C31.941 24.0813 32.7116 24.0587 33.4143 24.036C33.7996 24.036 33.9923 23.8433 33.9923 23.458C33.9923 23.254 33.9923 23.0613 33.9923 22.88C33.9923 22.676 33.981 22.472 33.9583 22.268C33.913 21.6107 33.879 20.9533 33.8563 20.296C33.8336 19.6387 33.7996 18.9813 33.7543 18.324ZM69.318 18.018C69.2727 19.0607 69.046 20.1713 68.638 21.35C68.23 22.506 67.652 23.6507 66.904 24.784C66.1107 25.94 65.17 26.8693 64.082 27.572C62.994 28.2747 61.8267 28.864 60.58 29.34C60.2174 29.476 59.8207 29.5893 59.39 29.68C58.982 29.7707 58.5627 29.8273 58.132 29.85C57.7014 29.8953 57.2707 29.9067 56.84 29.884C56.432 29.8613 56.0467 29.8047 55.684 29.714C55.276 29.6233 54.7547 29.442 54.12 29.17C53.4854 28.9207 52.8054 28.6033 52.08 28.218C51.3547 27.81 50.6294 27.334 49.904 26.79C49.1787 26.246 48.5214 25.634 47.932 24.954C47.4107 24.342 47.0254 23.6733 46.776 22.948C46.504 22.2 46.3454 21.418 46.3 20.602C46.232 19.378 46.2887 18.1767 46.47 16.998C46.6287 15.8193 46.9687 14.6633 47.49 13.53C47.762 12.9407 48.1247 12.3287 48.578 11.694C49.0314 11.0367 49.6094 10.4133 50.312 9.824C51.0147 9.23467 51.8534 8.69067 52.828 8.192C53.8027 7.69333 54.9587 7.28533 56.296 6.968C56.9534 6.832 57.69 6.77533 58.506 6.798C59.3447 6.82067 60.1947 6.94533 61.056 7.172C61.6907 7.33067 62.3254 7.58 62.96 7.92C63.6174 8.26 64.2294 8.634 64.796 9.042C65.3627 9.45 65.8614 9.86933 66.292 10.3C66.7227 10.708 67.0627 11.0707 67.312 11.388C68.0147 12.2947 68.5134 13.2693 68.808 14.312C69.1254 15.3547 69.2954 16.59 69.318 18.018ZM57.35 23.764C57.962 23.7867 58.506 23.764 58.982 23.696C59.4807 23.6053 59.9567 23.4353 60.41 23.186C61.566 22.4607 62.3934 21.5653 62.892 20.5C63.3907 19.4347 63.5154 18.2333 63.266 16.896C63.1527 16.2387 62.9147 15.638 62.552 15.094C62.212 14.55 61.7814 14.0853 61.26 13.7C60.7387 13.3147 60.1607 13.0313 59.526 12.85C58.914 12.6687 58.2794 12.6233 57.622 12.714C56.9647 12.8047 56.33 12.952 55.718 13.156C55.1287 13.3373 54.6187 13.6887 54.188 14.21C53.3494 15.162 52.7714 16.2047 52.454 17.338C52.1367 18.4487 52.148 19.65 52.488 20.942C52.556 21.1687 52.6694 21.3953 52.828 21.622C53.0094 21.8487 53.1907 22.0413 53.372 22.2C53.984 22.6987 54.6187 23.0953 55.276 23.39C55.956 23.6847 56.6474 23.8093 57.35 23.764ZM72.0556 12.578C72.0782 11.762 72.0896 11.048 72.0896 10.436C72.1122 9.80133 72.1349 9.08733 72.1576 8.294C72.1576 8.06733 72.1576 7.886 72.1576 7.75C72.1802 7.614 72.2256 7.512 72.2936 7.444C72.3616 7.376 72.4522 7.33067 72.5656 7.308C72.7016 7.28533 72.8829 7.26266 73.1096 7.24C73.2909 7.21733 73.4609 7.21733 73.6196 7.24C73.8009 7.24 73.9822 7.24 74.1636 7.24C74.4129 7.24 74.6736 7.24 74.9456 7.24C75.2176 7.21733 75.4782 7.206 75.7276 7.206C75.8862 7.206 76.1469 7.206 76.5096 7.206C76.8722 7.18333 77.2576 7.16067 77.6656 7.138C78.0736 7.09267 78.4589 7.07 78.8216 7.07C79.2069 7.04733 79.4789 7.036 79.6376 7.036C80.0909 7.08133 80.5329 7.12667 80.9636 7.172C81.3942 7.19467 81.8249 7.22867 82.2556 7.274C83.2756 7.38733 84.1936 7.67067 85.0096 8.124C85.8482 8.57733 86.6529 9.11 87.4236 9.722C87.5369 9.81267 87.6276 9.90333 87.6956 9.994C87.7862 10.0847 87.8882 10.1867 88.0016 10.3C88.5456 10.7987 88.9422 11.2973 89.1916 11.796C89.4636 12.272 89.6222 12.7707 89.6676 13.292C89.7129 13.8133 89.6789 14.3573 89.5656 14.924C89.4522 15.4907 89.2936 16.114 89.0896 16.794C88.6136 18.3127 87.9336 19.4913 87.0496 20.33C86.1656 21.1687 85.0096 21.8033 83.5816 22.234C82.7882 22.4833 81.9836 22.6307 81.1676 22.676C80.3742 22.7213 79.5582 22.7213 78.7196 22.676C78.1982 22.6307 77.8809 22.6647 77.7676 22.778C77.6542 22.8687 77.5862 23.1747 77.5636 23.696C77.5409 24.4667 77.5296 25.2373 77.5296 26.008C77.5522 26.7787 77.5636 27.5493 77.5636 28.32C77.5636 28.7733 77.5069 29.0567 77.3936 29.17C77.2802 29.2833 76.9856 29.3287 76.5096 29.306C75.8749 29.2833 75.2402 29.2607 74.6056 29.238C73.9936 29.2153 73.3589 29.1927 72.7016 29.17C72.2709 29.1473 72.0442 28.8867 72.0216 28.388C71.9989 27.776 71.9876 27.164 71.9876 26.552C71.9876 25.94 71.9876 25.328 71.9876 24.716V17.848C71.9876 17.848 71.9876 17.6553 71.9876 17.27C71.9876 16.8847 71.9876 16.42 71.9876 15.876C71.9876 15.332 71.9876 14.7653 71.9876 14.176C72.0102 13.564 72.0329 13.0313 72.0556 12.578ZM79.6716 12.17C79.4902 12.17 79.2976 12.1813 79.0936 12.204C78.8896 12.204 78.6969 12.204 78.5156 12.204C78.3116 12.2267 78.1416 12.2833 78.0056 12.374C77.8922 12.442 77.8242 12.5893 77.8016 12.816C77.8016 13.4733 77.7902 14.1533 77.7676 14.856C77.7676 15.5587 77.7562 16.2387 77.7336 16.896C77.7336 17.236 77.9149 17.4287 78.2776 17.474C79.0936 17.5647 79.8869 17.5647 80.6576 17.474C81.4282 17.3607 82.1762 17.1113 82.9016 16.726C83.3096 16.4993 83.6269 16.2047 83.8536 15.842C84.0349 15.57 84.1482 15.2527 84.1936 14.89C84.2389 14.5047 84.2049 14.142 84.0916 13.802C83.9782 13.462 83.7969 13.1673 83.5476 12.918C83.2982 12.646 82.9696 12.476 82.5616 12.408C82.3122 12.3627 82.0289 12.3287 81.7116 12.306C81.3942 12.2607 81.0769 12.2267 80.7596 12.204C80.4649 12.1813 80.2042 12.17 79.9776 12.17C79.7736 12.17 79.6716 12.17 79.6716 12.17ZM115.006 18.018C114.96 19.0607 114.734 20.1713 114.326 21.35C113.918 22.506 113.34 23.6507 112.592 24.784C111.798 25.94 110.858 26.8693 109.77 27.572C108.682 28.2747 107.514 28.864 106.268 29.34C105.905 29.476 105.508 29.5893 105.078 29.68C104.67 29.7707 104.25 29.8273 103.82 29.85C103.389 29.8953 102.958 29.9067 102.528 29.884C102.12 29.8613 101.734 29.8047 101.372 29.714C100.964 29.6233 100.442 29.442 99.8075 29.17C99.1729 28.9207 98.4929 28.6033 97.7675 28.218C97.0422 27.81 96.3169 27.334 95.5915 26.79C94.8662 26.246 94.2089 25.634 93.6195 24.954C93.0982 24.342 92.7129 23.6733 92.4635 22.948C92.1915 22.2 92.0329 21.418 91.9875 20.602C91.9195 19.378 91.9762 18.1767 92.1575 16.998C92.3162 15.8193 92.6562 14.6633 93.1775 13.53C93.4495 12.9407 93.8122 12.3287 94.2655 11.694C94.7189 11.0367 95.2969 10.4133 95.9995 9.824C96.7022 9.23467 97.5409 8.69067 98.5155 8.192C99.4902 7.69333 100.646 7.28533 101.984 6.968C102.641 6.832 103.378 6.77533 104.194 6.798C105.032 6.82067 105.882 6.94533 106.744 7.172C107.378 7.33067 108.013 7.58 108.648 7.92C109.305 8.26 109.917 8.634 110.484 9.042C111.05 9.45 111.549 9.86933 111.98 10.3C112.41 10.708 112.75 11.0707 113 11.388C113.702 12.2947 114.201 13.2693 114.496 14.312C114.813 15.3547 114.983 16.59 115.006 18.018ZM103.038 23.764C103.65 23.7867 104.194 23.764 104.67 23.696C105.168 23.6053 105.644 23.4353 106.098 23.186C107.254 22.4607 108.081 21.5653 108.58 20.5C109.078 19.4347 109.203 18.2333 108.954 16.896C108.84 16.2387 108.602 15.638 108.24 15.094C107.9 14.55 107.469 14.0853 106.948 13.7C106.426 13.3147 105.848 13.0313 105.214 12.85C104.602 12.6687 103.967 12.6233 103.31 12.714C102.652 12.8047 102.018 12.952 101.406 13.156C100.816 13.3373 100.306 13.6887 99.8755 14.21C99.0369 15.162 98.4589 16.2047 98.1415 17.338C97.8242 18.4487 97.8355 19.65 98.1755 20.942C98.2435 21.1687 98.3569 21.3953 98.5155 21.622C98.6969 21.8487 98.8782 22.0413 99.0595 22.2C99.6715 22.6987 100.306 23.0953 100.964 23.39C101.644 23.6847 102.335 23.8093 103.038 23.764ZM132.125 16.182C132.442 16.2953 132.726 16.4087 132.975 16.522C133.224 16.6353 133.474 16.7487 133.723 16.862C133.927 16.9527 134.154 17.134 134.403 17.406C134.652 17.678 134.879 18.0407 135.083 18.494C135.31 18.9473 135.491 19.5027 135.627 20.16C135.786 20.7947 135.865 21.52 135.865 22.336C135.865 22.9933 135.706 23.6507 135.389 24.308C135.072 24.9653 134.664 25.5887 134.165 26.178C133.689 26.7447 133.156 27.2547 132.567 27.708C131.978 28.1387 131.411 28.456 130.867 28.66C130.051 28.9773 129.212 29.1927 128.351 29.306C127.512 29.4193 126.662 29.4873 125.801 29.51C125.756 29.51 125.71 29.4987 125.665 29.476C125.62 29.476 125.574 29.4873 125.529 29.51C125.144 29.5553 124.577 29.5667 123.829 29.544C123.104 29.544 122.367 29.5327 121.619 29.51C120.735 29.4873 119.806 29.4647 118.831 29.442C118.672 29.442 118.536 29.4193 118.423 29.374C118.31 29.3287 118.208 29.272 118.117 29.204C118.026 29.136 117.958 29.034 117.913 28.898C117.8 28.5127 117.743 28.1387 117.743 27.776C117.72 25.9853 117.709 24.206 117.709 22.438C117.709 20.6473 117.709 18.8567 117.709 17.066C117.709 16.0687 117.709 15.0827 117.709 14.108C117.732 13.1333 117.743 12.1473 117.743 11.15C117.766 10.4927 117.766 9.84667 117.743 9.212C117.743 8.55467 117.72 7.89733 117.675 7.24C117.675 6.9 117.811 6.73 118.083 6.73C119.534 6.70733 120.894 6.68467 122.163 6.662C123.455 6.63933 124.826 6.63933 126.277 6.662C126.798 6.662 127.308 6.71867 127.807 6.832C128.328 6.94533 128.85 7.07 129.371 7.206C130.028 7.38733 130.629 7.682 131.173 8.09C131.717 8.47533 132.216 8.92867 132.669 9.45C132.941 9.79 133.134 10.2093 133.247 10.708C133.338 11.1613 133.406 11.6147 133.451 12.068C133.496 12.4987 133.496 12.918 133.451 13.326C133.428 13.734 133.349 14.142 133.213 14.55C133.077 14.9353 132.862 15.3093 132.567 15.672C132.522 15.74 132.465 15.8193 132.397 15.91C132.329 15.978 132.238 16.0687 132.125 16.182ZM123.863 22.03V22.914C123.818 23.3673 123.795 23.7073 123.795 23.934C123.795 24.1607 123.84 24.3193 123.931 24.41C124.044 24.5007 124.214 24.546 124.441 24.546C124.668 24.546 124.985 24.5573 125.393 24.58C126.073 24.6253 126.719 24.5347 127.331 24.308C127.943 24.0813 128.521 23.7753 129.065 23.39C129.972 22.778 130.13 21.9847 129.541 21.01C129.314 20.67 128.997 20.364 128.589 20.092C127.932 19.6613 127.252 19.446 126.549 19.446C125.869 19.4233 125.166 19.4573 124.441 19.548C124.214 19.5933 124.067 19.6727 123.999 19.786C123.931 19.8993 123.897 20.058 123.897 20.262C123.897 20.4207 123.886 20.602 123.863 20.806C123.863 20.9873 123.863 21.1687 123.863 21.35V22.03ZM123.761 12.748C123.761 13.36 123.761 13.836 123.761 14.176C123.761 14.4933 123.829 14.7087 123.965 14.822C124.101 14.9353 124.328 14.9807 124.645 14.958C124.962 14.9353 125.45 14.89 126.107 14.822C126.379 14.7767 126.64 14.7087 126.889 14.618C127.138 14.5047 127.388 14.38 127.637 14.244C127.954 14.0627 128.181 13.8247 128.317 13.53C128.453 13.2127 128.51 12.8727 128.487 12.51C128.464 12.1473 128.34 11.864 128.113 11.66C127.886 11.4333 127.614 11.2747 127.297 11.184C127.025 11.116 126.742 11.0707 126.447 11.048C126.175 11.0253 125.892 11.0027 125.597 10.98C125.325 10.9573 125.053 10.9573 124.781 10.98C124.509 11.0027 124.248 11.014 123.999 11.014C123.954 11.3087 123.908 11.6033 123.863 11.898C123.84 12.17 123.806 12.4533 123.761 12.748ZM139.758 19.378C139.78 18.562 139.792 17.5533 139.792 16.352C139.814 15.1507 139.826 13.972 139.826 12.816C139.848 11.66 139.86 10.64 139.86 9.756C139.86 8.872 139.86 8.328 139.86 8.124C139.837 7.716 139.871 7.46667 139.962 7.376C140.052 7.28533 140.313 7.22867 140.744 7.206C140.857 7.206 141.118 7.206 141.526 7.206C141.934 7.206 142.387 7.21733 142.886 7.24C143.384 7.24 143.872 7.25133 144.348 7.274C144.824 7.274 145.186 7.274 145.436 7.274C145.798 7.29667 146.014 7.33067 146.082 7.376C146.15 7.42133 146.206 7.62533 146.252 7.988C146.297 8.75867 146.297 9.52933 146.252 10.3C146.229 11.048 146.24 11.8073 146.286 12.578C146.286 12.8727 146.297 13.1107 146.32 13.292C146.342 13.4507 146.388 13.5753 146.456 13.666C146.524 13.734 146.637 13.7907 146.796 13.836C146.954 13.8587 147.192 13.8927 147.51 13.938C147.736 13.9607 147.952 13.972 148.156 13.972C148.382 13.972 148.609 13.9947 148.836 14.04C150.196 14.2667 151.386 14.7313 152.406 15.434C153.426 16.1367 154.242 17.134 154.854 18.426C155.262 19.2873 155.522 20.16 155.636 21.044C155.749 21.928 155.67 22.846 155.398 23.798C155.148 24.7047 154.74 25.5547 154.174 26.348C153.607 27.1187 152.859 27.6853 151.93 28.048C150.978 28.4333 150.048 28.6713 149.142 28.762C148.258 28.83 147.317 28.9093 146.32 29C146.206 29 145.934 29 145.504 29C145.073 29.0227 144.574 29.034 144.008 29.034C143.441 29.034 142.874 29.034 142.308 29.034C141.741 29.0567 141.288 29.0793 140.948 29.102C140.426 29.1247 140.098 29.0793 139.962 28.966C139.848 28.83 139.792 28.5013 139.792 27.98C139.792 26.484 139.78 25.0107 139.758 23.56C139.758 22.0867 139.758 20.6927 139.758 19.378ZM146.116 23.322C146.116 23.5033 146.15 23.662 146.218 23.798C146.286 23.9113 146.41 23.968 146.592 23.968C146.818 23.968 147.09 23.968 147.408 23.968C147.748 23.9453 148.076 23.9 148.394 23.832C148.711 23.764 149.006 23.6847 149.278 23.594C149.572 23.4807 149.81 23.3333 149.992 23.152C150.173 22.9707 150.309 22.744 150.4 22.472C150.513 22.2 150.581 21.9167 150.604 21.622C150.649 21.3273 150.649 21.0327 150.604 20.738C150.558 20.4433 150.479 20.1827 150.366 19.956C150.252 19.7293 150.037 19.5253 149.72 19.344C149.425 19.14 149.096 18.9813 148.734 18.868C148.371 18.732 147.997 18.6413 147.612 18.596C147.226 18.528 146.898 18.5053 146.626 18.528C146.308 18.5733 146.138 18.732 146.116 19.004V23.322ZM157.982 8.09C157.982 7.77267 158.016 7.55733 158.084 7.444C158.174 7.308 158.378 7.25133 158.696 7.274C159.398 7.274 160.101 7.274 160.804 7.274C161.506 7.274 162.209 7.29667 162.912 7.342C163.297 7.36467 163.524 7.43267 163.592 7.546C163.682 7.63667 163.728 7.886 163.728 8.294C163.773 9.246 163.796 10.1413 163.796 10.98C163.818 11.8187 163.83 12.714 163.83 13.666C163.83 15.8647 163.83 18.0633 163.83 20.262C163.83 22.4607 163.807 24.6593 163.762 26.858C163.762 27.538 163.762 28.0367 163.762 28.354C163.784 28.6487 163.728 28.8527 163.592 28.966C163.478 29.0567 163.252 29.0907 162.912 29.068C162.594 29.0453 162.096 29.034 161.416 29.034C160.985 29.0567 160.566 29.0567 160.158 29.034C159.75 29.0113 159.33 29 158.9 29C158.492 29 158.22 28.9433 158.084 28.83C157.948 28.7167 157.88 28.4447 157.88 28.014C157.88 26.314 157.88 24.614 157.88 22.914C157.88 21.1913 157.868 19.4687 157.846 17.746C157.846 17.746 157.857 17.406 157.88 16.726C157.902 16.0233 157.914 15.1733 157.914 14.176C157.936 13.1787 157.948 12.1247 157.948 11.014C157.97 9.90333 157.982 8.92867 157.982 8.09ZM167.714 7.886C167.714 7.52333 167.782 7.26267 167.918 7.104C168.054 6.94533 168.292 6.88867 168.632 6.934C169.425 6.97933 170.184 6.97933 170.91 6.934C171.658 6.88867 172.428 6.91133 173.222 7.002C173.72 7.04733 173.947 7.308 173.902 7.784C173.902 7.988 173.902 8.396 173.902 9.008C173.902 9.59733 173.902 10.2887 173.902 11.082C173.902 11.8753 173.902 12.714 173.902 13.598C173.924 14.4593 173.936 15.264 173.936 16.012C173.958 16.7373 173.981 17.338 174.004 17.814C174.026 18.29 174.049 18.528 174.072 18.528C174.321 18.528 174.491 18.46 174.582 18.324C174.899 17.9387 175.194 17.5533 175.466 17.168C175.76 16.7827 176.055 16.3973 176.35 16.012C176.871 15.2867 177.381 14.55 177.88 13.802C178.401 13.054 178.922 12.3173 179.444 11.592C179.897 10.9573 180.339 10.334 180.77 9.722C181.223 9.11 181.676 8.47533 182.13 7.818C182.243 7.65933 182.334 7.53467 182.402 7.444C182.492 7.35333 182.594 7.28533 182.708 7.24C182.844 7.172 182.991 7.138 183.15 7.138C183.331 7.11533 183.58 7.104 183.898 7.104H186.55C186.912 7.104 187.184 7.11533 187.366 7.138C187.547 7.138 187.683 7.172 187.774 7.24C187.864 7.308 187.91 7.43267 187.91 7.614C187.932 7.77267 187.955 7.99933 187.978 8.294C188 8.86067 188.012 9.688 188.012 10.776C188.034 11.864 188.046 13.0767 188.046 14.414C188.046 15.7287 188.046 17.1 188.046 18.528C188.046 19.9333 188.034 21.2367 188.012 22.438C188.012 23.6167 188.012 24.6253 188.012 25.464C188.012 26.3027 188.012 26.8127 188.012 26.994C188.012 27.266 188.012 27.504 188.012 27.708C188.034 27.8893 188.023 28.116 187.978 28.388C187.932 28.6827 187.853 28.8753 187.74 28.966C187.626 29.0567 187.411 29.0907 187.094 29.068C186.504 29.0227 185.904 29.0113 185.292 29.034C184.702 29.0793 184.113 29.0793 183.524 29.034C183.32 29.0113 183.07 29.0113 182.776 29.034C182.504 29.0567 182.334 29.034 182.266 28.966C182.198 28.898 182.175 28.6827 182.198 28.32C182.22 27.9573 182.22 27.6513 182.198 27.402C182.198 26.4047 182.198 25.5093 182.198 24.716C182.22 23.9227 182.22 23.0273 182.198 22.03C182.198 21.5087 182.186 20.9873 182.164 20.466C182.164 19.922 182.152 19.3893 182.13 18.868C182.13 18.7093 182.084 18.596 181.994 18.528C181.903 18.4827 181.801 18.5167 181.688 18.63C181.597 18.7207 181.484 18.8567 181.348 19.038C180.441 20.2167 179.546 21.3953 178.662 22.574C177.778 23.73 176.882 24.8973 175.976 26.076C175.658 26.5293 175.33 26.9487 174.99 27.334C174.672 27.7193 174.355 28.1387 174.038 28.592C173.811 28.932 173.482 29.102 173.052 29.102C172.258 29.0567 171.465 29.0453 170.672 29.068C169.901 29.0907 169.119 29.0793 168.326 29.034C168.144 29.034 168.02 28.9887 167.952 28.898C167.906 28.8073 167.872 28.6827 167.85 28.524C167.85 28.3653 167.85 28.218 167.85 28.082C167.85 27.9233 167.838 27.7647 167.816 27.606C167.816 26.0193 167.804 24.444 167.782 22.88C167.782 21.2933 167.77 19.6953 167.748 18.086C167.725 18.086 167.714 17.848 167.714 17.372C167.714 16.896 167.714 16.3067 167.714 15.604C167.714 14.8787 167.714 14.0967 167.714 13.258C167.714 12.3967 167.714 11.592 167.714 10.844C167.714 10.0733 167.714 9.416 167.714 8.872C167.714 8.328 167.714 7.99933 167.714 7.886ZM177.982 4.86C177.642 4.86 177.313 4.792 176.996 4.656C176.678 4.52 176.406 4.35 176.18 4.146C175.953 3.91933 175.772 3.67 175.636 3.398C175.5 3.126 175.443 2.84266 175.466 2.548C175.511 1.89067 175.794 1.34667 176.316 0.915999C176.837 0.462666 177.46 0.247333 178.186 0.269999C179.659 0.292665 180.43 1.10867 180.498 2.718C180.52 2.99 180.452 3.262 180.294 3.534C180.158 3.78333 179.965 4.01 179.716 4.214C179.489 4.418 179.217 4.57667 178.9 4.69C178.605 4.80333 178.299 4.86 177.982 4.86ZM217.158 16.182C217.476 16.2953 217.759 16.4087 218.008 16.522C218.258 16.6353 218.507 16.7487 218.756 16.862C218.96 16.9527 219.187 17.134 219.436 17.406C219.686 17.678 219.912 18.0407 220.116 18.494C220.343 18.9473 220.524 19.5027 220.66 20.16C220.819 20.7947 220.898 21.52 220.898 22.336C220.898 22.9933 220.74 23.6507 220.422 24.308C220.105 24.9653 219.697 25.5887 219.198 26.178C218.722 26.7447 218.19 27.2547 217.6 27.708C217.011 28.1387 216.444 28.456 215.9 28.66C215.084 28.9773 214.246 29.1927 213.384 29.306C212.546 29.4193 211.696 29.4873 210.834 29.51C210.789 29.51 210.744 29.4987 210.698 29.476C210.653 29.476 210.608 29.4873 210.562 29.51C210.177 29.5553 209.61 29.5667 208.862 29.544C208.137 29.544 207.4 29.5327 206.652 29.51C205.768 29.4873 204.839 29.4647 203.864 29.442C203.706 29.442 203.57 29.4193 203.456 29.374C203.343 29.3287 203.241 29.272 203.15 29.204C203.06 29.136 202.992 29.034 202.946 28.898C202.833 28.5127 202.776 28.1387 202.776 27.776C202.754 25.9853 202.742 24.206 202.742 22.438C202.742 20.6473 202.742 18.8567 202.742 17.066C202.742 16.0687 202.742 15.0827 202.742 14.108C202.765 13.1333 202.776 12.1473 202.776 11.15C202.799 10.4927 202.799 9.84667 202.776 9.212C202.776 8.55467 202.754 7.89733 202.708 7.24C202.708 6.9 202.844 6.73 203.116 6.73C204.567 6.70733 205.927 6.68467 207.196 6.662C208.488 6.63933 209.86 6.63933 211.31 6.662C211.832 6.662 212.342 6.71867 212.84 6.832C213.362 6.94533 213.883 7.07 214.404 7.206C215.062 7.38733 215.662 7.682 216.206 8.09C216.75 8.47533 217.249 8.92867 217.702 9.45C217.974 9.79 218.167 10.2093 218.28 10.708C218.371 11.1613 218.439 11.6147 218.484 12.068C218.53 12.4987 218.53 12.918 218.484 13.326C218.462 13.734 218.382 14.142 218.246 14.55C218.11 14.9353 217.895 15.3093 217.6 15.672C217.555 15.74 217.498 15.8193 217.43 15.91C217.362 15.978 217.272 16.0687 217.158 16.182ZM208.896 22.03V22.914C208.851 23.3673 208.828 23.7073 208.828 23.934C208.828 24.1607 208.874 24.3193 208.964 24.41C209.078 24.5007 209.248 24.546 209.474 24.546C209.701 24.546 210.018 24.5573 210.426 24.58C211.106 24.6253 211.752 24.5347 212.364 24.308C212.976 24.0813 213.554 23.7753 214.098 23.39C215.005 22.778 215.164 21.9847 214.574 21.01C214.348 20.67 214.03 20.364 213.622 20.092C212.965 19.6613 212.285 19.446 211.582 19.446C210.902 19.4233 210.2 19.4573 209.474 19.548C209.248 19.5933 209.1 19.6727 209.032 19.786C208.964 19.8993 208.93 20.058 208.93 20.262C208.93 20.4207 208.919 20.602 208.896 20.806C208.896 20.9873 208.896 21.1687 208.896 21.35V22.03ZM208.794 12.748C208.794 13.36 208.794 13.836 208.794 14.176C208.794 14.4933 208.862 14.7087 208.998 14.822C209.134 14.9353 209.361 14.9807 209.678 14.958C209.996 14.9353 210.483 14.89 211.14 14.822C211.412 14.7767 211.673 14.7087 211.922 14.618C212.172 14.5047 212.421 14.38 212.67 14.244C212.988 14.0627 213.214 13.8247 213.35 13.53C213.486 13.2127 213.543 12.8727 213.52 12.51C213.498 12.1473 213.373 11.864 213.146 11.66C212.92 11.4333 212.648 11.2747 212.33 11.184C212.058 11.116 211.775 11.0707 211.48 11.048C211.208 11.0253 210.925 11.0027 210.63 10.98C210.358 10.9573 210.086 10.9573 209.814 10.98C209.542 11.0027 209.282 11.014 209.032 11.014C208.987 11.3087 208.942 11.6033 208.896 11.898C208.874 12.17 208.84 12.4533 208.794 12.748ZM224.791 19.378C224.813 18.562 224.825 17.5533 224.825 16.352C224.847 15.1507 224.859 13.972 224.859 12.816C224.881 11.66 224.893 10.64 224.893 9.756C224.893 8.872 224.893 8.328 224.893 8.124C224.87 7.716 224.904 7.46667 224.995 7.376C225.085 7.28533 225.346 7.22867 225.777 7.206C225.89 7.206 226.151 7.206 226.559 7.206C226.967 7.206 227.42 7.21733 227.919 7.24C228.417 7.24 228.905 7.25133 229.381 7.274C229.857 7.274 230.219 7.274 230.469 7.274C230.831 7.29667 231.047 7.33067 231.115 7.376C231.183 7.42133 231.239 7.62533 231.285 7.988C231.33 8.75867 231.33 9.52933 231.285 10.3C231.262 11.048 231.273 11.8073 231.319 12.578C231.319 12.8727 231.33 13.1107 231.353 13.292C231.375 13.4507 231.421 13.5753 231.489 13.666C231.557 13.734 231.67 13.7907 231.829 13.836C231.987 13.8587 232.225 13.8927 232.543 13.938C232.769 13.9607 232.985 13.972 233.189 13.972C233.415 13.972 233.642 13.9947 233.869 14.04C235.229 14.2667 236.419 14.7313 237.439 15.434C238.459 16.1367 239.275 17.134 239.887 18.426C240.295 19.2873 240.555 20.16 240.669 21.044C240.782 21.928 240.703 22.846 240.431 23.798C240.181 24.7047 239.773 25.5547 239.207 26.348C238.64 27.1187 237.892 27.6853 236.963 28.048C236.011 28.4333 235.081 28.6713 234.175 28.762C233.291 28.83 232.35 28.9093 231.353 29C231.239 29 230.967 29 230.537 29C230.106 29.0227 229.607 29.034 229.041 29.034C228.474 29.034 227.907 29.034 227.341 29.034C226.774 29.0567 226.321 29.0793 225.981 29.102C225.459 29.1247 225.131 29.0793 224.995 28.966C224.881 28.83 224.825 28.5013 224.825 27.98C224.825 26.484 224.813 25.0107 224.791 23.56C224.791 22.0867 224.791 20.6927 224.791 19.378ZM231.149 23.322C231.149 23.5033 231.183 23.662 231.251 23.798C231.319 23.9113 231.443 23.968 231.625 23.968C231.851 23.968 232.123 23.968 232.441 23.968C232.781 23.9453 233.109 23.9 233.427 23.832C233.744 23.764 234.039 23.6847 234.311 23.594C234.605 23.4807 234.843 23.3333 235.025 23.152C235.206 22.9707 235.342 22.744 235.433 22.472C235.546 22.2 235.614 21.9167 235.637 21.622C235.682 21.3273 235.682 21.0327 235.637 20.738C235.591 20.4433 235.512 20.1827 235.399 19.956C235.285 19.7293 235.07 19.5253 234.753 19.344C234.458 19.14 234.129 18.9813 233.767 18.868C233.404 18.732 233.03 18.6413 232.645 18.596C232.259 18.528 231.931 18.5053 231.659 18.528C231.341 18.5733 231.171 18.732 231.149 19.004V23.322ZM243.015 8.09C243.015 7.77267 243.049 7.55733 243.117 7.444C243.207 7.308 243.411 7.25133 243.729 7.274C244.431 7.274 245.134 7.274 245.837 7.274C246.539 7.274 247.242 7.29667 247.945 7.342C248.33 7.36467 248.557 7.43267 248.625 7.546C248.715 7.63667 248.761 7.886 248.761 8.294C248.806 9.246 248.829 10.1413 248.829 10.98C248.851 11.8187 248.863 12.714 248.863 13.666C248.863 15.8647 248.863 18.0633 248.863 20.262C248.863 22.4607 248.84 24.6593 248.795 26.858C248.795 27.538 248.795 28.0367 248.795 28.354C248.817 28.6487 248.761 28.8527 248.625 28.966C248.511 29.0567 248.285 29.0907 247.945 29.068C247.627 29.0453 247.129 29.034 246.449 29.034C246.018 29.0567 245.599 29.0567 245.191 29.034C244.783 29.0113 244.363 29 243.933 29C243.525 29 243.253 28.9433 243.117 28.83C242.981 28.7167 242.913 28.4447 242.913 28.014C242.913 26.314 242.913 24.614 242.913 22.914C242.913 21.1913 242.901 19.4687 242.879 17.746C242.879 17.746 242.89 17.406 242.913 16.726C242.935 16.0233 242.947 15.1733 242.947 14.176C242.969 13.1787 242.981 12.1247 242.981 11.014C243.003 9.90333 243.015 8.92867 243.015 8.09ZM257.847 29.408C257.144 29.3853 256.442 29.374 255.739 29.374C255.059 29.374 254.356 29.3513 253.631 29.306C253.246 29.2833 252.996 29.2153 252.883 29.102C252.77 28.9887 252.713 28.7393 252.713 28.354C252.736 27.5833 252.747 26.824 252.747 26.076C252.77 25.3053 252.792 24.5233 252.815 23.73V19.14V10.776C252.815 9.77867 252.781 8.77 252.713 7.75C252.713 7.50067 252.758 7.342 252.849 7.274C252.94 7.18333 253.098 7.138 253.325 7.138C253.597 7.138 254.028 7.138 254.617 7.138C255.229 7.138 255.92 7.138 256.691 7.138C257.462 7.138 258.266 7.14933 259.105 7.172C259.966 7.172 260.794 7.172 261.587 7.172C262.403 7.172 263.151 7.172 263.831 7.172C264.511 7.172 265.044 7.16067 265.429 7.138C265.678 7.11533 265.916 7.104 266.143 7.104C266.392 7.08133 266.642 7.08133 266.891 7.104C267.299 7.12667 267.582 7.21733 267.741 7.376C267.9 7.53467 267.968 7.82933 267.945 8.26C267.922 8.82667 267.888 9.37067 267.843 9.892C267.798 10.3907 267.752 10.9233 267.707 11.49C267.684 11.6713 267.662 11.8187 267.639 11.932C267.616 12.0453 267.571 12.1247 267.503 12.17C267.458 12.2153 267.378 12.2493 267.265 12.272C267.152 12.272 266.993 12.272 266.789 12.272C265.996 12.2947 265.202 12.306 264.409 12.306C263.638 12.2833 262.856 12.2833 262.063 12.306C261.564 12.306 261.054 12.3173 260.533 12.34C260.012 12.34 259.513 12.34 259.037 12.34C258.674 12.34 258.47 12.5213 258.425 12.884C258.38 13.2693 258.368 13.6433 258.391 14.006C258.436 14.3687 258.448 14.754 258.425 15.162C258.425 15.366 258.482 15.502 258.595 15.57C258.708 15.638 258.856 15.672 259.037 15.672C259.672 15.74 260.295 15.774 260.907 15.774C261.542 15.7513 262.188 15.74 262.845 15.74C263.502 15.7627 264.148 15.8533 264.783 16.012C265.418 16.148 266.052 16.318 266.687 16.522C267.48 16.794 268.16 17.1907 268.727 17.712C269.316 18.2333 269.804 18.8567 270.189 19.582C270.506 20.1713 270.654 20.7493 270.631 21.316C270.608 21.8827 270.529 22.5853 270.393 23.424C270.189 24.6933 269.758 25.7247 269.101 26.518C268.444 27.2887 267.684 27.8893 266.823 28.32C265.984 28.7507 265.112 29.034 264.205 29.17C263.298 29.306 262.471 29.374 261.723 29.374C261.655 29.374 261.406 29.374 260.975 29.374C260.567 29.374 260.125 29.374 259.649 29.374C259.196 29.374 258.776 29.374 258.391 29.374C258.028 29.374 257.847 29.3853 257.847 29.408ZM260.465 20.296C260.284 20.2507 260.091 20.2393 259.887 20.262C259.683 20.2847 259.468 20.2847 259.241 20.262C258.788 20.2167 258.55 20.4093 258.527 20.84C258.527 21.3613 258.516 21.8713 258.493 22.37C258.493 22.846 258.493 23.3447 258.493 23.866C258.493 24.2513 258.697 24.478 259.105 24.546C260.397 24.818 261.644 24.6933 262.845 24.172C263.162 24.036 263.412 23.8433 263.593 23.594C263.797 23.3447 263.933 23.0727 264.001 22.778C264.069 22.4833 264.058 22.2 263.967 21.928C263.899 21.6333 263.74 21.3727 263.491 21.146C263.264 20.9647 263.004 20.8287 262.709 20.738C262.437 20.6247 262.154 20.534 261.859 20.466C261.655 20.398 261.428 20.3527 261.179 20.33C260.952 20.3073 260.714 20.296 260.465 20.296ZM296.361 18.018C296.316 19.0607 296.089 20.1713 295.681 21.35C295.273 22.506 294.695 23.6507 293.947 24.784C293.154 25.94 292.213 26.8693 291.125 27.572C290.037 28.2747 288.87 28.864 287.623 29.34C287.26 29.476 286.864 29.5893 286.433 29.68C286.025 29.7707 285.606 29.8273 285.175 29.85C284.744 29.8953 284.314 29.9067 283.883 29.884C283.475 29.8613 283.09 29.8047 282.727 29.714C282.319 29.6233 281.798 29.442 281.163 29.17C280.528 28.9207 279.848 28.6033 279.123 28.218C278.398 27.81 277.672 27.334 276.947 26.79C276.222 26.246 275.564 25.634 274.975 24.954C274.454 24.342 274.068 23.6733 273.819 22.948C273.547 22.2 273.388 21.418 273.343 20.602C273.275 19.378 273.332 18.1767 273.513 16.998C273.672 15.8193 274.012 14.6633 274.533 13.53C274.805 12.9407 275.168 12.3287 275.621 11.694C276.074 11.0367 276.652 10.4133 277.355 9.824C278.058 9.23467 278.896 8.69067 279.871 8.192C280.846 7.69333 282.002 7.28533 283.339 6.968C283.996 6.832 284.733 6.77533 285.549 6.798C286.388 6.82067 287.238 6.94533 288.099 7.172C288.734 7.33067 289.368 7.58 290.003 7.92C290.66 8.26 291.272 8.634 291.839 9.042C292.406 9.45 292.904 9.86933 293.335 10.3C293.766 10.708 294.106 11.0707 294.355 11.388C295.058 12.2947 295.556 13.2693 295.851 14.312C296.168 15.3547 296.338 16.59 296.361 18.018ZM284.393 23.764C285.005 23.7867 285.549 23.764 286.025 23.696C286.524 23.6053 287 23.4353 287.453 23.186C288.609 22.4607 289.436 21.5653 289.935 20.5C290.434 19.4347 290.558 18.2333 290.309 16.896C290.196 16.2387 289.958 15.638 289.595 15.094C289.255 14.55 288.824 14.0853 288.303 13.7C287.782 13.3147 287.204 13.0313 286.569 12.85C285.957 12.6687 285.322 12.6233 284.665 12.714C284.008 12.8047 283.373 12.952 282.761 13.156C282.172 13.3373 281.662 13.6887 281.231 14.21C280.392 15.162 279.814 16.2047 279.497 17.338C279.18 18.4487 279.191 19.65 279.531 20.942C279.599 21.1687 279.712 21.3953 279.871 21.622C280.052 21.8487 280.234 22.0413 280.415 22.2C281.027 22.6987 281.662 23.0953 282.319 23.39C282.999 23.6847 283.69 23.8093 284.393 23.764ZM299.099 12.578C299.121 11.762 299.133 11.048 299.133 10.436C299.155 9.80133 299.178 9.08733 299.201 8.294C299.201 8.06733 299.201 7.886 299.201 7.75C299.223 7.614 299.269 7.512 299.337 7.444C299.405 7.376 299.495 7.33067 299.609 7.308C299.745 7.28533 299.926 7.26266 300.153 7.24C300.334 7.21733 300.504 7.21733 300.663 7.24C300.844 7.24 301.025 7.24 301.207 7.24C301.456 7.24 301.717 7.24 301.989 7.24C302.261 7.21733 302.521 7.206 302.771 7.206C302.929 7.206 303.19 7.206 303.553 7.206C303.915 7.18333 304.301 7.16067 304.709 7.138C305.117 7.09267 305.502 7.07 305.865 7.07C306.25 7.04733 306.522 7.036 306.681 7.036C307.134 7.08133 307.576 7.12667 308.007 7.172C308.437 7.19467 308.868 7.22867 309.299 7.274C310.319 7.38733 311.237 7.67067 312.053 8.124C312.891 8.57733 313.696 9.11 314.467 9.722C314.58 9.81267 314.671 9.90333 314.739 9.994C314.829 10.0847 314.931 10.1867 315.045 10.3C315.589 10.7987 315.985 11.2973 316.235 11.796C316.507 12.272 316.665 12.7707 316.711 13.292C316.756 13.8133 316.722 14.3573 316.609 14.924C316.495 15.4907 316.337 16.114 316.133 16.794C315.657 18.3127 314.977 19.4913 314.093 20.33C313.209 21.1687 312.053 21.8033 310.625 22.234C309.831 22.4833 309.027 22.6307 308.211 22.676C307.417 22.7213 306.601 22.7213 305.763 22.676C305.241 22.6307 304.924 22.6647 304.811 22.778C304.697 22.8687 304.629 23.1747 304.607 23.696C304.584 24.4667 304.573 25.2373 304.573 26.008C304.595 26.7787 304.607 27.5493 304.607 28.32C304.607 28.7733 304.55 29.0567 304.437 29.17C304.323 29.2833 304.029 29.3287 303.553 29.306C302.918 29.2833 302.283 29.2607 301.649 29.238C301.037 29.2153 300.402 29.1927 299.745 29.17C299.314 29.1473 299.087 28.8867 299.065 28.388C299.042 27.776 299.031 27.164 299.031 26.552C299.031 25.94 299.031 25.328 299.031 24.716V17.848C299.031 17.848 299.031 17.6553 299.031 17.27C299.031 16.8847 299.031 16.42 299.031 15.876C299.031 15.332 299.031 14.7653 299.031 14.176C299.053 13.564 299.076 13.0313 299.099 12.578ZM306.715 12.17C306.533 12.17 306.341 12.1813 306.137 12.204C305.933 12.204 305.74 12.204 305.559 12.204C305.355 12.2267 305.185 12.2833 305.049 12.374C304.935 12.442 304.867 12.5893 304.845 12.816C304.845 13.4733 304.833 14.1533 304.811 14.856C304.811 15.5587 304.799 16.2387 304.777 16.896C304.777 17.236 304.958 17.4287 305.321 17.474C306.137 17.5647 306.93 17.5647 307.701 17.474C308.471 17.3607 309.219 17.1113 309.945 16.726C310.353 16.4993 310.67 16.2047 310.897 15.842C311.078 15.57 311.191 15.2527 311.237 14.89C311.282 14.5047 311.248 14.142 311.135 13.802C311.021 13.462 310.84 13.1673 310.591 12.918C310.341 12.646 310.013 12.476 309.605 12.408C309.355 12.3627 309.072 12.3287 308.755 12.306C308.437 12.2607 308.12 12.2267 307.803 12.204C307.508 12.1813 307.247 12.17 307.021 12.17C306.817 12.17 306.715 12.17 306.715 12.17Z" fill="#78BA52"/>
</svg>
