<svg width="50" height="49" viewBox="0 0 50 49" fill="none" xmlns="http://www.w3.org/2000/svg">
<path d="M25 24.499C28.797 24.499 31.875 21.4769 31.875 17.749C31.875 14.0211 28.797 10.999 25 10.999C21.203 10.999 18.125 14.0211 18.125 17.749C18.125 21.4769 21.203 24.499 25 24.499Z" stroke="#333333" stroke-width="4"/>
<path d="M24.9997 47C37.6562 47 47.9163 36.9264 47.9163 24.5C47.9163 12.0736 37.6562 2 24.9997 2C12.3431 2 2.08301 12.0736 2.08301 24.5C2.08301 36.9264 12.3431 47 24.9997 47Z" stroke="#333333" stroke-width="4"/>
<path d="M38.679 42.499C38.3144 35.9931 36.2856 31.249 24.9996 31.249C13.7138 31.249 11.685 35.9931 11.3203 42.499" stroke="#333333" stroke-width="4" stroke-linecap="round"/>
</svg>
