<svg width="45" height="45" viewBox="0 0 45 45" fill="none" xmlns="http://www.w3.org/2000/svg">
<path fill-rule="evenodd" clip-rule="evenodd" d="M25.3125 5.625C25.3125 2.5184 27.8308 0 30.9375 0H39.375C42.4817 0 45 2.5184 45 5.625V14.0625C45 17.1692 42.4817 19.6875 39.375 19.6875H30.9375C27.8308 19.6875 25.3125 17.1692 25.3125 14.0625V5.625ZM39.375 5.625H30.9375V14.0625H39.375V5.625ZM5.625 25.3125C2.5184 25.3125 0 27.8308 0 30.9375V39.375C0 42.4817 2.5184 45 5.625 45H14.0625C17.1692 45 19.6875 42.4817 19.6875 39.375V30.9375C19.6875 27.8308 17.1692 25.3125 14.0625 25.3125H5.625ZM5.625 30.9375H14.0625V39.375H5.625V30.9375ZM30.9375 25.3125C27.8308 25.3125 25.3125 27.8308 25.3125 30.9375V39.375C25.3125 42.4817 27.8308 45 30.9375 45H39.375C42.4817 45 45 42.4817 45 39.375V30.9375C45 27.8308 42.4817 25.3125 39.375 25.3125H30.9375ZM30.9375 30.9375H39.375V39.375H30.9375V30.9375ZM5.625 0C2.5184 0 0 2.5184 0 5.625V14.0625C0 17.1692 2.5184 19.6875 5.625 19.6875H14.0625C17.1692 19.6875 19.6875 17.1692 19.6875 14.0625V5.625C19.6875 2.5184 17.1692 0 14.0625 0H5.625ZM5.625 5.625H14.0625V14.0625H5.625V5.625Z" fill="#333333"/>
</svg>
