<svg width="49" height="49" viewBox="0 0 49 49" fill="none" xmlns="http://www.w3.org/2000/svg">
<path d="M4.66201 35.6372C2.57012 27.0576 1.52419 22.7678 3.72063 19.8836C5.91707 16.999 10.2296 16.999 18.8547 16.999H30.1454C38.7704 16.999 43.0829 16.999 45.2793 19.8836C47.4759 22.7678 46.4299 27.0576 44.3381 35.6372C43.0075 41.094 42.3422 43.8223 40.3582 45.4108C38.3739 46.9993 35.6311 46.9993 30.1454 46.9993H18.8547C13.369 46.9993 10.6261 46.9993 8.64192 45.4108C6.65773 43.8223 5.99248 41.094 4.66201 35.6372Z" stroke="#333333" stroke-width="4"/>
<path d="M42.7865 18.2501L41.0543 11.7367C40.3865 9.22517 40.0525 7.96941 39.3676 7.02367C38.6853 6.08184 37.7583 5.35586 36.6928 4.9288C35.6227 4.5 34.3533 4.5 31.8144 4.5M6.21289 18.2501L7.94502 11.7367C8.6129 9.22517 8.94684 7.96941 9.63181 7.02367C10.314 6.08184 11.2409 5.35586 12.3066 4.9288C13.3766 4.5 14.6461 4.5 17.185 4.5" stroke="#333333" stroke-width="4"/>
<path d="M17.1855 4.50002C17.1855 3.11931 18.2772 2 19.6238 2H29.3767C30.7234 2 31.815 3.11931 31.815 4.50002C31.815 5.88074 30.7234 7.00005 29.3767 7.00005H19.6238C18.2772 7.00005 17.1855 5.88074 17.1855 4.50002Z" stroke="#333333" stroke-width="4"/>
<path d="M14.7471 27V37.0001" stroke="#333333" stroke-width="4" stroke-linecap="round" stroke-linejoin="round"/>
<path d="M34.2529 27V37.0001" stroke="#333333" stroke-width="4" stroke-linecap="round" stroke-linejoin="round"/>
<path d="M24.5 27V37.0001" stroke="#333333" stroke-width="4" stroke-linecap="round" stroke-linejoin="round"/>
</svg>
