<svg width="32" height="32" viewBox="0 0 32 32" fill="none" xmlns="http://www.w3.org/2000/svg">
<path fill-rule="evenodd" clip-rule="evenodd" d="M28.6277 16C28.6277 15.3253 28.5625 14.636 28.4302 13.9467L32 11.0054L28.6124 5.50195L24.1084 6.92977C22.9709 6.0326 21.6741 5.32505 20.3064 4.8564L19.378 0.5H12.622L11.6936 4.8546C10.3105 5.32505 9.03682 6.02165 7.88972 6.92795L3.38762 5.50195L0 11.0054L3.56984 13.9467C3.43747 14.636 3.37225 15.3253 3.37225 16C3.37225 16.6747 3.43747 17.364 3.56983 18.0533L0 20.9946L3.3876 26.4981L7.89162 25.0702C9.02913 25.9674 10.3259 26.6749 11.6936 27.1436L12.622 31.5H19.378L20.3064 27.1454C21.6875 26.6749 22.9632 25.9784 24.1103 25.0721L28.6124 26.4999L32 20.9965L28.4301 18.0551C28.5625 17.364 28.6277 16.6747 28.6277 16ZM16 22.3824C12.2978 22.3824 9.28615 19.5194 9.28615 16C9.28615 12.4806 12.2978 9.61765 16 9.61765C19.7022 9.61765 22.7138 12.4806 22.7138 16C22.7138 19.5194 19.7022 22.3824 16 22.3824Z" fill="#7E7E7E"/>
</svg>
