<svg width="14" height="13" viewBox="0 0 14 13" fill="none" xmlns="http://www.w3.org/2000/svg">
<path d="M4.79017 2.21545C5.61349 0.738486 6.02513 0 6.64062 0C7.2561 0 7.66775 0.738479 8.49104 2.21544L8.70404 2.59755C8.93804 3.01726 9.05497 3.22712 9.23743 3.36558C9.41982 3.50404 9.64693 3.55544 10.1013 3.65824L10.5149 3.75182C12.1137 4.11357 12.9131 4.29444 13.1033 4.90603C13.2935 5.5176 12.7485 6.15492 11.6585 7.42944L11.3766 7.75919C11.0669 8.12137 10.912 8.30246 10.8423 8.52652C10.7727 8.75057 10.7961 8.99218 10.8429 9.47545L10.8855 9.91537C11.0503 11.6159 11.1327 12.4662 10.6348 12.8441C10.1368 13.2221 9.38836 12.8775 7.89141 12.1883L7.50414 12.0099C7.07878 11.8141 6.8661 11.7161 6.64062 11.7161C6.41513 11.7161 6.20245 11.8141 5.77709 12.0099L5.38982 12.1883C3.89286 12.8775 3.14439 13.2221 2.64647 12.8441C2.14855 12.4662 2.23095 11.6159 2.39573 9.91537L2.43836 9.47545C2.48519 8.99218 2.50861 8.75057 2.43893 8.52652C2.36927 8.30246 2.2144 8.12137 1.90467 7.75919L1.62269 7.42944C0.532738 6.15492 -0.0122405 5.5176 0.177949 4.90603C0.368139 4.29444 1.16753 4.11357 2.76632 3.75182L3.17995 3.65824C3.63427 3.55544 3.86144 3.50404 4.04383 3.36558C4.22623 3.22712 4.34322 3.01727 4.57718 2.59755L4.79017 2.21545Z" fill="#F98026"/>
</svg>
