<svg width="39" height="24" viewBox="0 0 39 24" fill="none" xmlns="http://www.w3.org/2000/svg">
<path d="M17.8491 0.621666L0.618571 18.1672C0.219726 18.573 0 19.1147 0 19.6923C0 20.2699 0.219726 20.8116 0.618571 21.2174L1.88719 22.5095C2.71384 23.3503 4.05738 23.3503 4.88277 22.5095L19.352 7.77616L33.8372 22.5259C34.2361 22.9317 34.7678 23.1558 35.3347 23.1558C35.9023 23.1558 36.434 22.9317 36.8331 22.5259L38.1014 21.2338C38.5003 20.8277 38.72 20.2863 38.72 19.7087C38.72 19.131 38.5003 18.5893 38.1014 18.1835L20.8551 0.621666C20.455 0.214898 19.9208 -0.00851873 19.3529 -0.00723656C18.7828 -0.00851873 18.2489 0.214898 17.8491 0.621666Z" fill="white"/>
</svg>
