<svg width="81" height="85" viewBox="0 0 81 85" fill="none" xmlns="http://www.w3.org/2000/svg">
<path d="M54.709 55.22H26.4671C19.4692 55.2516 12.7666 58.1063 7.81825 63.163C2.86989 68.2197 0.0762623 75.0689 0.0453657 82.22C-0.0151219 82.9787 -0.0151219 83.7413 0.0453657 84.5H80.9546C81.0151 83.7413 81.0151 82.9787 80.9546 82.22C80.9395 75.095 78.175 68.2637 73.2613 63.2087C68.3476 58.1538 61.6812 55.2832 54.709 55.22ZM41.1459 47.78C45.7213 47.78 50.194 46.3935 53.9983 43.7959C57.8026 41.1983 60.7677 37.5063 62.5186 33.1866C64.2696 28.867 64.7277 24.1138 63.8351 19.5281C62.9425 14.9424 60.7392 10.7301 57.5039 7.42401C54.2686 4.11789 50.1465 1.8664 45.659 0.954247C41.1715 0.0420921 36.5201 0.510243 32.293 2.2995C28.0658 4.08875 24.4529 7.11875 21.9109 11.0063C19.3689 14.8939 18.0122 19.4645 18.0122 24.14C18.0122 30.4097 20.4495 36.4226 24.7879 40.856C29.1263 45.2894 35.0104 47.78 41.1459 47.78Z" fill="#7E7E7E"/>
</svg>
