<svg width="64" height="36" viewBox="0 0 64 36" fill="none" xmlns="http://www.w3.org/2000/svg">
<path d="M38.4573 17.3506C37.3008 16.9461 37.3008 15.4011 37.2291 14.3252C36.94 10.4929 38.3856 4.64214 36.6509 2.15468C35.4228 0.674249 29.4949 0.809812 25.8822 1.01208C24.8692 1.14764 23.6411 1.34776 22.7737 1.7523C21.9064 2.15683 21.0391 2.82819 21.0391 3.43284C21.0391 4.30647 23.2086 4.17305 24.0019 5.31565C24.8692 6.52711 24.8692 9.14799 24.8692 11.2998C24.8692 13.7872 24.4344 17.0838 23.352 17.2172C21.689 17.2839 20.75 15.7368 19.8827 14.5942C18.148 12.3757 16.4134 9.61708 15.1112 6.92734C14.4613 5.51577 14.0982 3.96864 13.1592 3.36398C11.7136 2.4215 9.11165 2.3548 6.58138 2.4215C4.26852 2.48821 0.942621 2.21923 0.292707 3.49739C-0.21381 4.90897 0.870922 6.25383 1.44914 7.39858C4.41192 13.3827 7.5921 18.6288 11.4962 23.6037C15.1112 28.2429 18.5065 31.9419 25.156 33.8914C27.0363 34.4293 35.2748 35.9765 36.9377 33.8914C37.5159 33.0845 37.3725 31.2684 37.6616 29.9235C37.9507 28.5786 38.3116 27.2338 39.6854 27.167C40.8418 27.1003 41.4917 28.0407 42.2157 28.7142C43.0113 29.4544 43.6612 30.059 44.2394 30.7326C45.6133 32.0107 47.0588 33.758 48.7934 34.4315C51.178 35.374 54.8647 35.105 58.334 34.9694C61.1534 34.9027 63.1771 34.3648 63.3946 32.8176C63.5403 31.6062 62.0924 29.8589 61.2251 28.8497C59.0556 26.3623 58.0449 25.6221 55.5863 23.3347C54.5016 22.3255 53.1278 21.2496 53.1278 20.0403C53.0561 19.3001 53.706 18.6288 54.2842 17.8885C56.8145 14.3919 59.3447 11.9044 61.6576 8.27221C62.3075 7.19632 63.8271 4.70885 63.2488 3.49739C62.5989 2.15253 58.9839 2.55491 56.7428 2.55491C53.8517 2.55491 50.0933 2.35264 49.3694 2.89059C47.9955 3.76422 47.4173 5.17794 46.7674 6.52281C45.3218 9.61708 43.3698 12.7759 41.346 15.13C40.6221 15.9369 39.2506 17.6174 38.455 17.3484L38.4573 17.3506Z" fill="#333333"/>
</svg>
