<svg width="57" height="57" viewBox="0 0 57 57" fill="none" xmlns="http://www.w3.org/2000/svg">
<g clip-path="url(#clip0_64_1854)">
<path fill-rule="evenodd" clip-rule="evenodd" d="M44.4181 40.3625C43.744 42.2802 41.0641 43.8667 38.927 44.3307C37.464 44.6428 35.5562 44.8897 29.1281 42.2127C21.9083 39.2068 11.8828 28.4992 11.8828 21.3737C11.8828 17.7463 13.964 13.5224 17.6032 13.5224C19.3543 13.5224 19.7404 13.5567 20.3166 14.9458C20.9908 16.5824 22.6356 20.6145 22.8314 21.0278C23.6398 22.7234 22.009 23.7161 20.8257 25.1923C20.4481 25.6366 20.0201 26.1171 20.4984 26.9438C20.974 27.7537 22.6188 30.4476 25.0356 32.6099C28.1574 35.405 30.689 36.2974 31.5953 36.677C32.2694 36.9582 33.0751 36.8927 33.5674 36.364C34.1912 35.6864 34.966 34.562 35.7549 33.4541C36.3115 32.6611 37.0193 32.5621 37.7606 32.8433C38.2613 33.0176 44.6251 35.9877 44.8936 36.4629C45.0922 36.8088 45.0923 38.4447 44.4181 40.3625ZM28.1406 0.666504H28.1266C12.7052 0.666504 0.162109 13.2753 0.162109 28.7776C0.162109 34.9246 2.13422 40.6274 5.48818 45.2531L2.00274 55.6987L12.7527 52.2465C17.1753 55.1879 22.4537 56.8887 28.1406 56.8887C43.5621 56.8887 56.108 44.2799 56.108 28.7776C56.108 13.2753 43.5621 0.666504 28.1406 0.666504Z" fill="#333333"/>
</g>
<defs>
<clipPath id="clip0_64_1854">
<rect width="55.9459" height="56.2222" fill="white" transform="translate(0.162109 0.666504)"/>
</clipPath>
</defs>
</svg>
