<svg width="32" height="26" viewBox="0 0 32 26" fill="none" xmlns="http://www.w3.org/2000/svg">
<path d="M12 12.9855C12 11.3367 13.7823 10 15.9806 10C18.179 10 19.9613 11.3367 19.9613 12.9855C19.9613 14.6343 18.179 15.971 15.9806 15.971C13.7823 15.971 12 14.6343 12 12.9855Z" fill="#CBCBCB"/>
<path fill-rule="evenodd" clip-rule="evenodd" d="M0 13C0 15.664 0.679936 16.5612 2.03982 18.3555C4.75514 21.9382 9.30898 26 16 26C22.691 26 27.2448 21.9382 29.9602 18.3555C31.32 16.5612 32 15.664 32 13C32 10.336 31.32 9.43886 29.9602 7.64454C27.2448 4.06179 22.691 0 16 0C9.30898 0 4.75514 4.06179 2.03982 7.64454C0.679936 9.43886 0 10.336 0 13ZM16 6.90625C12.6863 6.90625 10 9.63451 10 13C10 16.3655 12.6863 19.0938 16 19.0938C19.3138 19.0938 22 16.3655 22 13C22 9.63451 19.3138 6.90625 16 6.90625Z" fill="#CBCBCB"/>
</svg>
