<svg width="32" height="27" viewBox="0 0 32 27" fill="none" xmlns="http://www.w3.org/2000/svg">
<path d="M12 13.7831C12 12.1343 13.7823 10.7976 15.9806 10.7976C18.179 10.7976 19.9613 12.1343 19.9613 13.7831C19.9613 15.4319 18.179 16.7686 15.9806 16.7686C13.7823 16.7686 12 15.4319 12 13.7831Z" fill="white"/>
<path fill-rule="evenodd" clip-rule="evenodd" d="M0 13.7976C0 16.4616 0.679936 17.3588 2.03982 19.1531C4.75514 22.7358 9.30898 26.7976 16 26.7976C22.691 26.7976 27.2448 22.7358 29.9602 19.1531C31.32 17.3588 32 16.4616 32 13.7976C32 11.1336 31.32 10.2365 29.9602 8.44214C27.2448 4.85939 22.691 0.797607 16 0.797607C9.30898 0.797607 4.75514 4.85939 2.03982 8.44214C0.679936 10.2365 0 11.1336 0 13.7976ZM16 7.70386C12.6863 7.70386 10 10.4321 10 13.7976C10 17.1631 12.6863 19.8914 16 19.8914C19.3138 19.8914 22 17.1631 22 13.7976C22 10.4321 19.3138 7.70386 16 7.70386Z" fill="white"/>
</svg>
